<svg width="138" height="65" viewBox="0 0 138 65" fill="none" xmlns="http://www.w3.org/2000/svg">
<g clip-path="url(#clip0_239_7805)">
<mask id="mask0_239_7805" style="mask-type:luminance" maskUnits="userSpaceOnUse" x="0" y="0" width="99" height="40">
<path d="M0 0H98.9204V39.1815H0V0Z" fill="white"/>
</mask>
<g mask="url(#mask0_239_7805)">
<path d="M28.5965 4.75868H28.8335C28.8945 5.64538 29.0118 6.52594 29.1888 7.39547C29.2939 8.00623 29.0496 9.16396 28.7956 9.49509C28.8628 9.77594 28.8689 10.0678 28.8102 10.3499C27.7502 15.6958 24.0083 18.8674 20.6805 21.8598C19.1698 23.2199 17.5394 24.737 15.7283 25.7365C16.2425 26.9016 17.272 27.8226 17.9412 28.8393C18.5567 29.7739 19.1991 30.6054 19.8744 31.4823L20.1785 31.638C20.5046 32.0587 20.7721 32.5529 21.1897 32.8828C21.1152 33.0055 21.0529 33.1355 21.0041 33.2716H21.081C21.1225 33.1833 21.1995 32.9061 21.252 33.1158H21.3314V33.1931C21.3778 33.3121 21.3314 33.1931 21.3131 33.4261H21.55C21.4108 34.1816 21.611 34.0442 21.8614 34.514C21.8614 34.514 21.6636 35.2903 21.7197 35.37V35.4497L21.8846 35.37C21.9335 35.2351 21.9945 35.1039 22.0727 34.9825V35.0597C22.3169 35.4276 22.0544 36.6516 21.7918 36.6933C21.7173 36.632 21.7735 36.6651 21.6404 36.616C21.656 36.4585 21.6411 36.2994 21.5964 36.1475H21.5195C21.434 36.4063 21.5475 36.2665 21.3412 36.383V36.3033C21.1458 36.0813 21.158 35.8765 20.827 35.76V35.9158C20.9919 36.1009 20.9125 35.9403 20.8832 36.226H21.0407C21.1262 36.1635 21.0639 36.1991 21.2056 36.1475C21.125 36.5437 21.633 37.125 21.506 37.3936C21.4205 37.4549 21.4828 37.4193 21.3412 37.4708L21.3595 37.2354C20.9113 37.2722 21.103 37.2182 20.8197 37.0808C20.6878 37.0159 20.7464 37.1839 20.7293 37.2366L20.4973 37.1581L20.479 37.3936C20.6548 37.4966 20.6157 37.4868 20.6255 37.5493C20.58 37.6265 20.5194 37.6936 20.4474 37.7467C20.3754 37.7998 20.2935 37.8378 20.2066 37.8584V37.9369C20.4631 37.9933 20.4631 38.0632 20.6621 38.1699C20.6316 38.2496 20.5974 38.3269 20.5669 38.4042C20.3882 38.531 20.1946 38.6352 19.9905 38.7144V38.6372C19.9392 38.5538 19.9489 38.5636 19.9294 38.4042C19.828 38.3244 19.9575 38.3526 20.0271 38.1687C19.9465 38.0988 20.0271 38.1687 19.9538 38.0914C19.7255 38.2312 19.6351 38.2263 19.4629 38.3269C19.3957 38.4091 19.4092 38.3992 19.3652 38.5599H19.7609C19.7991 38.6853 19.8156 38.8164 19.8097 38.9475H19.651C19.298 38.6703 18.5897 38.6261 18.503 38.4814C18.3247 38.3195 18.4786 38.3453 18.3687 38.1687C18.0499 38.36 17.918 38.1074 17.6689 38.0142V38.1687C17.8313 38.2987 17.8105 38.3919 18.0389 38.4814C18.1708 38.609 18.227 38.6163 18.5005 38.6372C18.459 38.7966 18.4712 38.7868 18.4053 38.8702C18.1287 38.6649 17.82 38.5074 17.4918 38.4042L17.4759 38.6372C17.7715 38.7868 17.9754 38.9573 18.31 39.1032V39.1817H18.2331C17.7967 39.1489 17.3738 39.0154 16.9972 38.7917C17.2048 38.6789 17.0851 38.8101 17.1718 38.5587H17.0155C16.8555 38.75 17.0155 38.8003 16.6748 38.869C16.6184 38.6932 16.5236 38.5323 16.3972 38.3982C16.2708 38.2641 16.1161 38.1601 15.9445 38.0939C15.9445 38.3244 16.091 38.2533 15.8419 38.4066C15.4816 37.7296 14.7342 37.3887 14.2225 36.8564C13.5244 36.1135 12.8979 35.3057 12.3516 34.4441C12.2661 34.3128 11.9938 34.2687 11.901 34.1338C11.7422 33.9044 11.7129 33.68 11.559 33.4347L11.0437 32.9662C10.5796 32.2708 9.22646 29.7788 8.62195 29.466V29.5445C8.32641 29.9468 8.43876 30.5441 8.26779 31.0947C7.82465 32.596 7.49801 34.1295 7.2908 35.6815H6.92443V35.76C7.05754 35.8826 7.02945 35.8299 7.05754 36.0727C6.65819 36.2567 6.85848 36.6393 6.37365 36.7718L6.34434 37.1606H6.26496C6.19046 37.0992 6.24664 37.1324 6.1123 37.0833L6.05124 36.8503C6.12095 36.839 6.18723 36.812 6.24516 36.7715C6.30309 36.7309 6.35118 36.6778 6.38586 36.616H6.14894C6.05857 36.7755 5.96087 37.0625 5.79112 37.1606C5.74471 36.903 5.83996 37.0416 5.65189 36.9275C5.89614 37.7738 5.04982 38.5955 4.40623 38.7942V38.6372C4.47305 38.5936 4.53028 38.5367 4.57439 38.47C4.6185 38.4034 4.64855 38.3284 4.66269 38.2496C4.58331 38.1797 4.66269 38.2496 4.59186 38.1711C4.33418 38.322 4.30609 38.2496 3.94827 38.3269L3.96048 38.1711C4.08054 38.0675 4.16972 37.9325 4.21816 37.7811C4.13878 37.7112 4.21816 37.7811 4.14611 37.7039H3.98735C3.95437 38.0105 3.85912 38.3085 3.7089 38.5771C3.62952 38.5072 3.7089 38.5771 3.63563 38.4998C3.54404 38.3134 3.6112 38.1687 3.51839 37.9577H3.36085C3.36791 38.2226 3.32181 38.4862 3.22529 38.7328L3.06042 38.8125V38.7328C2.98349 38.5881 3.036 38.1773 2.95784 38.0338C2.80763 38.1282 2.81862 38.0338 2.71359 38.1123H2.63543C2.72581 38.2288 2.79419 38.36 2.84182 38.4998C2.65375 38.4716 2.72336 38.4508 2.5243 38.4998C2.63299 38.6936 2.74657 38.696 2.65619 38.8898C2.56582 38.9475 2.57681 38.9364 2.39973 38.9683C2.3289 38.6617 2.39973 38.3759 2.06145 38.192C1.98696 38.1307 2.04313 38.1638 1.91002 38.1147V38.2705C2.03092 38.3735 1.9955 38.3195 2.04924 38.5035H1.97108C1.88193 38.4409 1.84285 38.4422 1.65966 38.425C1.4203 37.9835 1.10644 37.5641 0.97577 37.0244C1.12351 36.9671 1.24459 36.8565 1.31527 36.7142L1.5412 36.8687C1.50104 36.7456 1.43405 36.6331 1.3451 36.5393C1.25616 36.4455 1.14751 36.3729 1.02706 36.3266C0.896321 36.3901 0.76023 36.4418 0.620389 36.4811V36.6369C0.773581 36.7312 0.898821 36.865 0.983097 37.0244C0.74285 37.0323 0.503579 37.059 0.267451 37.1042L0.206389 36.8687C0.373699 36.8405 0.360265 36.8503 0.450637 36.7914C0.194177 36.7031 0.194177 36.7031 0.162425 36.4039H0.478726C0.556332 36.254 0.620891 36.0977 0.671681 35.9366H0.514142C0.396903 36.1794 0.257681 36.1941 0.10869 36.0911C0.0537345 36.0077 0.0647257 36.0175 0.0464071 35.8581C0.302867 35.7943 0.164867 35.8974 0.302867 35.7036H0.224708V35.6263H0.144106C0.0622832 35.6754 0.116018 35.7943 0.0586195 35.7036C0.00244248 35.6128 0.0183186 35.6288 0 35.4706C0.304089 35.0573 -0.100142 34.6182 0.116018 33.9204C0.52269 32.5995 0.385911 31.7153 0.775487 30.4202C1.59616 27.6804 2.33745 23.2996 3.74432 20.3121L3.80416 19.5358L4.06062 19.3812C4.17664 19.1433 4.13145 18.7018 4.2035 18.5252C4.31342 18.6 4.35494 18.8024 4.42943 18.6809H4.50637C4.02765 17.9058 5.04372 16.5899 5.11943 15.8038C5.05471 15.6725 5.8705 13.5349 6.02804 13.1596C6.34189 12.4127 6.47867 11.6965 6.81818 11.0588C7.06243 10.6038 6.92076 9.86424 7.17844 9.42764C7.52283 8.83896 8.28488 6.66207 8.48028 5.77047L8.63294 5.85019V5.77047C8.54012 5.51292 9.35103 4.45821 9.48903 3.8266C9.76747 3.84255 9.92867 3.9333 9.95798 3.90387C10.1094 3.78245 10.0716 3.83764 10.1375 3.59358H9.98119C9.8957 3.65613 9.95676 3.62302 9.81632 3.67207V3.51632H10.0532L10.1668 3.04906H10.4831C10.5246 2.88594 10.5136 2.89943 10.5784 2.81358C11.5456 1.96122 12.707 1.05858 14.3899 1.49273C15.02 1.24745 15.6025 0.729904 16.1912 0.482168C16.6235 0.304338 16.7969 0.577829 17.2207 0.482168C17.4246 0.435564 17.6945 0.202546 17.8741 0.171885C18.1317 0.125281 18.1635 0.429432 18.4944 0.32764C18.8975 0.208678 19.3798 0.0382059 19.6974 0.0921682C21.02 0.325187 22.3499 -0.278209 23.6395 0.171885C24.2086 0.370564 24.4297 0.79981 24.8315 1.10519C25.1844 1.36273 25.8487 1.23151 26.2237 1.49273C26.4972 1.68406 26.6047 2.16236 26.8709 2.34877L27.1115 2.27028C27.1762 2.32792 27.0907 2.52906 27.1689 2.58302C27.2458 2.63821 27.683 2.59651 27.8687 2.73877C27.9615 2.81113 27.9615 2.94236 28.1593 3.04906C28.2497 3.64264 28.5501 4.07066 28.5965 4.75868ZM0.64115 34.2258C0.769381 34.33 0.757168 34.3607 0.873186 34.3042H0.950124V34.2258H0.64115ZM0.790142 37.4929H0.393239L0.406673 37.3384C0.561876 37.2984 0.703835 37.218 0.81823 37.1054L0.790142 37.4929ZM0.731522 36.1721L0.718089 36.3278H0.797469V36.1721H0.732743H0.731522ZM0.704655 37.5702C0.811089 37.58 0.915338 37.6065 1.01363 37.6487L1.00142 37.8032H0.764496V37.7259C0.713204 37.6425 0.746177 37.7014 0.704655 37.5677V37.5702ZM0.859752 36.5596C0.966507 36.5675 1.07107 36.5941 1.16873 36.6381V36.7926H0.841434L0.859752 36.5596ZM1.44961 37.1054V37.2611C1.57173 37.1642 1.53632 37.2243 1.44961 37.1017V37.1054ZM1.57784 37.4929V37.6487H1.73416V37.5702L1.57784 37.4929ZM1.74515 36.3278C1.71306 36.4837 1.72837 36.6456 1.78912 36.7926C1.82187 36.636 1.80654 36.4731 1.74515 36.3254V36.3278ZM1.96619 37.5702V37.7259H2.12373L2.13595 37.5702H1.96619ZM2.32402 37.0257V37.1826H2.40096C2.35211 37.0428 2.38019 37.1029 2.32402 37.0232V37.0257ZM3.52083 22.1738L3.50862 22.3295H3.588V22.1738H3.52083ZM2.44736 37.4917C2.42416 37.7149 2.36188 37.5996 2.42904 37.7235C2.51697 37.7848 2.5585 37.7848 2.73802 37.8008V37.7235C2.6486 37.6369 2.55129 37.5601 2.44736 37.4917ZM2.84671 37.4132C2.93952 37.7002 2.83083 37.7811 3.12759 37.8805V37.8008C3.07019 37.71 3.07508 37.672 3.07019 37.4905L2.84671 37.4132ZM3.20942 38.891C3.12393 39.1498 3.23995 39.01 3.03478 39.1241V39.0468C2.97738 38.9658 3.00913 39.0259 2.96761 38.891H3.20942ZM3.50251 37.1029C3.4222 37.3271 3.37808 37.5626 3.37184 37.8008C3.45122 37.8731 3.37184 37.8008 3.44389 37.8805H3.60021L3.62586 37.5677C3.72112 37.4157 3.63685 37.2452 3.50373 37.1017L3.50251 37.1029ZM4.24136 36.7129C4.36715 36.8 4.31586 36.8515 4.40012 36.7129H4.24136ZM4.19251 38.4238C4.38547 38.5378 4.28289 38.4078 4.33418 38.6568C4.26457 38.7365 4.30365 38.6801 4.24136 38.8138C4.16198 38.7414 4.24136 38.8138 4.16931 38.7365C4.09726 38.6592 4.14489 38.712 4.10214 38.5783C4.17175 38.501 4.13145 38.5587 4.19251 38.4238ZM4.65903 37.4917V37.6462H4.81535V37.5677L4.65903 37.4917ZM4.62239 37.9577V38.1135H4.70177C4.65048 37.9761 4.67857 38.0387 4.62239 37.9577ZM4.91304 37.2587V37.4132H4.99365V37.2575L4.91304 37.2587ZM5.21713 37.4132C5.12676 37.6585 5.00586 37.9013 4.92159 38.1883H5.07791V38.0338C5.15529 37.9529 5.20917 37.8524 5.23372 37.743C5.25826 37.6336 5.25252 37.5196 5.21713 37.4132ZM6.02315 37.1802C6.10009 37.3323 6.05857 37.32 5.99873 37.4905H5.92301V37.3359C6.00361 37.255 5.96453 37.3274 6.02681 37.1802H6.02315ZM6.63255 35.3921V35.5466H6.71193V35.3921H6.63255ZM6.6069 35.7024C6.60856 35.809 6.62753 35.9146 6.66308 36.0151C6.73269 35.9342 6.69483 35.9906 6.75345 35.8569H6.83283C6.91832 35.7796 6.76078 35.7821 6.76078 35.7796C6.68384 35.7183 6.74124 35.7539 6.6069 35.7024ZM10.2279 3.35075V3.50651H10.3073V3.35075H10.2279ZM11.9071 2.02745L11.8949 2.18321H12.1318V2.02745H11.9071ZM10.7542 19.4487V19.6032H10.8336V19.4487H10.7542ZM10.8495 19.2157V19.3714H10.9167V19.2157H10.8495ZM11.4308 19.8362H11.7483C12.0744 19.2905 13.6705 18.5436 14.247 18.1278C15.5024 17.1896 16.6333 16.0601 17.8679 15.0937C18.3052 14.7503 18.6068 14.1653 19.0672 13.8501L19.0855 13.6171C19.2504 13.5864 19.2406 13.5962 19.3273 13.5398C20.5009 12.2938 21.9506 9.64717 21.4254 7.70575C20.8001 7.75849 19.9062 7.23113 18.9158 7.47273C18.0914 7.67509 17.6286 8.15339 16.8006 8.32877C16.7359 8.0884 16.7407 8.10189 16.5075 8.01604C16.2498 8.35821 15.3156 8.56792 15.1837 8.79236C14.5193 9.63858 14.5706 10.8466 14.0797 11.997C14.0149 12.1441 13.7756 12.3355 13.7267 12.463C13.745 12.5918 13.7609 12.7206 13.778 12.8518C13.3659 14.0777 12.9318 15.2962 12.4762 16.5065L12.3394 17.2828C12.0304 18.0138 11.537 18.9593 11.4308 19.8362ZM13.0892 12.5268L12.9854 12.8395H13.066V12.6813C13.1149 12.6274 13.1808 12.6813 13.1552 12.5268H13.0892ZM15.9188 1.01689C15.9958 1.08189 15.9396 1.04509 16.0703 1.09538C16.0056 1.03283 16.063 1.06839 15.9286 1.01689H15.9188ZM16.3219 38.658H16.4818V38.7353H16.3206L16.3231 38.658H16.3219ZM17.3526 37.7247C17.4478 37.851 17.3965 37.8106 17.5761 37.8792V37.802L17.3526 37.7247ZM18.6959 38.7353L18.928 38.8125V38.8898H18.8425V38.9683C18.7631 38.8984 18.8425 38.9683 18.768 38.8898C18.6935 38.8125 18.7362 38.8775 18.6947 38.7353H18.6959ZM19.1515 38.035C19.2247 38.0988 19.1722 38.0632 19.3029 38.1123C19.2211 38.0509 19.2785 38.0865 19.1515 38.035ZM20.0918 37.1017C20.0063 37.2722 20.0137 37.2158 19.916 37.3372H20.0723C20.181 37.1201 20.2274 37.2759 20.0833 37.1017H20.0918ZM20.1993 36.7142L20.1859 36.8687H20.4228V36.7142H20.1993ZM23.0887 0.319055V0.47481C23.2109 0.381602 23.1767 0.442923 23.0887 0.319055ZM23.3977 0.396319V0.552074H23.4783V0.396319H23.3977ZM23.6542 1.01934C23.7323 1.08189 23.6762 1.04509 23.8093 1.09783C23.7433 1.03528 23.7995 1.06839 23.6652 1.01934H23.6554H23.6542ZM21.1055 37.0257V37.1802H21.1861C21.1445 37.0453 21.1738 37.1066 21.1164 37.0257H21.1055ZM23.8874 1.09783V1.25236H24.1244V1.17509L23.8874 1.09783ZM21.5182 33.7597H21.677C21.5732 33.8836 21.6355 33.8529 21.5182 33.7597ZM21.3082 36.551C21.3644 36.6283 21.3338 36.5719 21.3753 36.7068H21.2947L21.3082 36.551ZM21.5341 35.619L21.506 36.0053H21.5866C21.7381 35.9391 21.6477 35.9685 21.8223 36.0053L21.8406 35.7723C21.7315 35.7405 21.6283 35.6907 21.5353 35.6251V35.6177L21.5341 35.619ZM21.6074 36.7841H21.7637C21.6611 36.9153 21.7246 36.8871 21.6062 36.7914V36.7841H21.6074ZM26.9882 3.04047C27.1066 3.20604 27.1958 3.27594 27.2874 3.27349C27.3558 3.19622 27.3179 3.25264 27.3765 3.11896H27.2202C27.1298 3.06132 27.1469 3.07236 26.9882 3.04047ZM28.0983 10.3499C28.0641 10.4308 28.0311 10.5057 28.0006 10.5854H28.2363V10.5057C28.1776 10.4456 28.1593 10.41 28.0983 10.3499ZM28.1984 10.0408V10.1954H28.2753V10.0408H28.1984ZM28.4915 8.25151C28.452 8.43342 28.4656 8.62289 28.5306 8.79726C28.5702 8.61536 28.5566 8.42585 28.4915 8.25151ZM28.522 8.87453V9.03028H28.599L28.6124 8.87453H28.522ZM28.4842 9.41783C28.4988 9.57972 28.4842 9.56745 28.5428 9.65207V9.57236C28.6124 9.49509 28.5709 9.55151 28.6332 9.41783H28.4842Z" fill="#14004B"/>
<path d="M33.5633 37.5847L33.545 37.8177H33.4656C33.2092 37.7429 32.9014 38.2004 32.3433 38.0507C31.7037 37.8617 31.0872 37.6013 30.5054 37.2744C30.0193 37.0169 29.3733 37.0169 28.8848 36.8084C28.9275 36.6207 28.9434 36.6882 28.908 36.4969C28.7895 36.4454 28.6295 36.297 28.5318 36.2639L28.207 36.3411C27.9872 36.2381 28.0421 35.7831 27.8675 35.6421C27.3533 35.23 27.0004 35.7831 26.7476 34.786C26.9125 34.7566 26.9003 34.7676 26.9894 34.7075C26.5424 34.618 26.4985 34.1262 26.1919 33.7755C26.2542 33.6271 26.2921 33.4689 26.3055 33.3094H26.0686C25.5972 32.3246 25.4128 30.924 25.2223 29.8877C25.1246 29.3702 25.4299 28.6343 25.3432 28.2541C24.7997 25.8712 26.0454 20.9962 26.8404 18.8439C26.9821 18.4637 27.186 18.2184 27.3069 17.9106C27.3533 17.653 27.3961 17.393 27.4425 17.1355C27.5231 16.9932 27.7881 16.8276 27.8724 16.6694C28.0165 16.4119 27.9298 16.1813 28.0885 15.8943C28.3462 15.4185 28.8872 14.8188 29.1547 14.3429C29.543 13.6512 29.6688 12.6811 30.4052 12.4003C30.5518 12.3071 30.5444 12.4003 30.6617 12.3218C30.7515 12.2393 30.8144 12.1316 30.8424 12.0127C30.8559 11.922 30.8278 11.9146 30.7862 11.7C31.0561 11.5234 31.1111 11.3407 31.3016 11.0794C31.8536 10.5435 32.4447 10.0492 33.0687 9.60037C33.865 9.04235 34.8713 8.55424 35.5662 7.88952C35.6321 7.94594 35.648 7.98763 35.7127 8.04773C35.8959 7.47622 38.0697 6.62509 38.5155 6.49631C38.833 6.40065 39.0894 6.67537 39.2201 6.57358H39.2971C39.2177 6.45216 39.2177 6.5098 39.1591 6.34056C40.6856 6.45216 42.813 5.67462 44.6717 6.49631C45.3275 6.78575 45.838 7.42716 46.3888 7.82084C46.5598 7.94103 46.7674 7.92263 46.9237 8.05263C47.1447 8.2366 47.1215 8.51499 47.2779 8.59471C47.3756 8.53339 47.4159 8.53584 47.6003 8.52113C47.6784 8.72471 47.9043 8.85348 47.9532 9.0632L47.8347 9.60896C47.8885 9.79292 48.0717 9.75858 48.1156 10.0738C47.9227 10.2001 47.9202 10.1878 47.8579 10.4638C47.9972 10.5803 47.9764 10.6784 48.151 10.774C48.2121 10.7066 48.2573 10.6857 48.322 10.6195C48.2219 10.5384 48.1477 10.4297 48.1083 10.3068H48.344C48.4185 10.5055 48.4563 10.7164 48.4551 10.9298C48.5443 11.1788 48.5528 11.451 48.4759 11.7049L48.2341 11.7822C48.1999 11.9686 48.3599 11.9686 48.355 12.2494H48.2781V12.3279H48.1205C48.0587 12.1911 47.9661 12.0705 47.85 11.9758C47.7338 11.8811 47.5973 11.8148 47.4513 11.7822V11.8594C47.6161 12.0679 47.4146 12.0507 47.5001 12.2494L47.9459 12.6382C48.0045 12.7976 47.8213 13.5507 47.93 13.883C48.0387 14.2166 48.3782 14.6066 48.4783 14.9721L48.4454 15.4369C48.598 16.2574 48.6408 17.0938 48.5736 17.9265C48.5431 18.3263 48.3904 18.7997 48.4063 19.0916C48.4808 20.616 47.5636 22.6924 46.9445 23.8378C46.7173 24.2499 46.8382 24.6301 46.6196 25.0029C46.1714 25.7265 45.7647 26.4746 45.4033 27.2473C44.7462 28.6858 43.3442 30.1465 42.4063 31.3656C42.239 31.5863 42.2231 31.8623 42.0387 32.0671C41.4159 32.7539 40.8834 33.2064 40.3241 33.8552C39.766 34.504 39.7538 35.0669 38.866 35.4054V35.5636C39.1224 35.5636 38.9808 35.4311 39.098 35.6408H39.0174C38.4275 36.1142 37.8694 36.7839 37.0939 37.039C36.4467 37.2536 36.0889 36.9985 35.5039 37.1947C35.1803 37.3051 34.7321 37.7736 34.4304 37.8177C34.13 37.8619 34.0189 37.6313 33.5633 37.5847ZM26.3934 21.6401C26.4704 21.7051 26.4142 21.6683 26.5449 21.7198C26.4704 21.6634 26.5266 21.699 26.3934 21.6474V21.6401ZM25.966 27.3257V27.4815H26.043C25.9941 27.3441 26.0246 27.4067 25.966 27.3257ZM26.5473 33.2371V33.3928H26.7842V33.3143L26.5473 33.2371ZM27.3191 34.6352L27.2959 34.9479H27.4535V34.7909C27.3863 34.7419 27.3863 34.6928 27.3118 34.6352H27.3191ZM28.3621 36.5018H28.5208V36.66H28.3645L28.3621 36.5018ZM34.0531 30.1244L34.0702 29.8926C34.5855 29.9208 35.0068 29.9208 35.1998 29.5823C34.9629 29.6106 35.0252 29.7381 34.8884 29.5051C35.074 29.3322 34.9971 29.2696 35.3085 29.1923C35.35 29.0329 35.339 29.0452 35.4037 28.9593C35.6602 28.7214 35.9826 28.7018 36.1634 28.3363C35.9985 28.1524 36.0779 28.3118 36.106 28.0273C36.4125 27.755 36.5077 27.5723 36.9425 27.4042L36.8863 27.094H37.1233L37.1477 26.7837C37.4933 26.6206 37.2307 26.4918 37.5934 26.0834C37.7156 25.946 37.9598 25.897 38.0905 25.7731C38.2224 25.6492 38.5252 24.7392 38.7499 24.3725C39.0797 23.8268 39.5987 23.0946 39.9187 22.5059C39.9639 22.2214 40.0127 21.9344 40.0591 21.6499C40.3583 20.9582 40.6453 20.1843 40.8322 19.7073C41.0588 19.0042 41.1141 18.2569 40.9934 17.5279C40.9323 17.2704 40.7857 16.77 40.9018 16.6719C40.3278 16.0648 39.7294 15.8784 39.0992 15.2738L39.192 15.1192C39.4119 15.2174 39.6488 15.2701 39.8894 15.2738C39.8662 14.8813 39.9211 15.183 39.998 14.8838H39.9211V14.8065C39.5669 14.7648 39.1334 14.7059 38.9221 14.419C39.0772 14.3662 39.2397 14.3405 39.4033 14.3405C39.8026 14.5048 40.2142 14.6348 40.6368 14.728H40.7161V14.6507C40.5461 14.6369 40.3848 14.5691 40.2557 14.4571C40.1266 14.345 40.0364 14.1947 39.998 14.0277C38.6596 14.0277 37.9671 14.9537 37.1233 15.5068C35.957 16.2819 35.5222 17.3157 34.8347 18.6084C33.4266 21.2734 31.7803 26.742 33.1188 29.8853C33.4351 29.9319 33.7465 30.0091 34.047 30.1183L34.0531 30.1244ZM31.9366 37.2793C32.0502 37.4608 32.0368 37.4633 32.3128 37.5148V37.3578C32.1898 37.3118 32.0604 37.2853 31.9293 37.2793H31.9366ZM32.7085 37.5921L32.6132 37.8251H33.0077C33.052 37.7614 33.11 37.7086 33.1774 37.6706V37.5921H32.7085ZM33.8772 37.8251H34.0347V37.9024H33.876L33.8772 37.8251ZM38.3946 35.4986L38.3823 35.6543H38.4532C38.4068 35.517 38.4361 35.5734 38.3799 35.4949L38.3946 35.4986ZM40.5562 14.1099C40.6331 14.1749 40.5769 14.1393 40.7076 14.1908C40.6184 14.1209 40.6746 14.1577 40.5415 14.105L40.5562 14.1099ZM40.5122 16.5174C40.5696 16.5971 40.5378 16.5407 40.5794 16.6719H40.5122V16.5174ZM40.809 13.6402C40.9067 13.7677 40.8529 13.7285 41.0324 13.7959V13.7174L40.809 13.6402ZM40.7809 15.042C40.7826 15.1474 40.8016 15.2518 40.837 15.351H40.9164V15.1965C40.8676 15.1364 40.8529 15.0984 40.7857 15.0407H40.7796L40.7809 15.042ZM42.4686 6.25348V6.40924H42.6262L42.6384 6.25348H42.4686ZM43.0169 6.33075C43.1305 6.47301 43.078 6.4399 43.3198 6.4865V6.40924H43.2429V6.33075H43.0169ZM43.2612 7.26405C43.3381 7.32537 43.282 7.29226 43.4126 7.34131C43.3442 7.27999 43.4004 7.31311 43.2661 7.26405H43.2612ZM44.3163 6.8765C44.2785 6.73914 44.3164 6.79924 44.2492 6.7183V6.8765H44.3163ZM44.3737 7.18679C44.4714 7.31311 44.4165 7.27263 44.5972 7.34131V7.26405L44.3737 7.18679ZM45.6597 8.11886L45.6475 8.27462C45.7733 8.18141 45.7379 8.24273 45.6597 8.11886ZM47.1447 9.36245V9.44339H47.0654C46.9103 9.50226 47.2168 9.51697 47.2168 9.51697C47.2974 9.4348 47.2168 9.51697 47.3023 9.44339C47.2046 9.37839 47.2681 9.4115 47.135 9.36245H47.1447ZM47.5978 10.687C47.5648 10.7949 47.7041 10.7998 47.7444 10.8415C47.7969 10.7581 47.6088 10.7041 47.588 10.6857L47.5978 10.687ZM47.5514 11.3088C47.6735 11.5393 47.7786 11.7196 47.93 11.5418C47.6931 11.4596 47.7444 11.3995 47.5416 11.3088H47.5514ZM48.1803 12.3978C48.2365 12.545 48.2133 12.4542 48.1645 12.6308H48.0839V12.5524H48.0045V12.4751C48.1486 12.426 48.0851 12.4591 48.1694 12.3978H48.1803ZM48.0851 14.7231V14.8813H48.1645L48.1767 14.7231H48.0851ZM48.0155 17.7573L47.9178 17.9903H48.0741C48.0485 17.8357 48.0558 17.8456 48.0045 17.7634L48.0155 17.7573ZM47.8482 18.9236L47.9092 19.159H47.9862V19.0781H48.0668V19.0008H47.9886C47.9117 18.9444 47.9764 18.9763 47.8372 18.9285L47.8482 18.9236ZM48.2109 16.2009L48.1987 16.3567H48.2781V16.2022H48.2109V16.2009ZM89.7611 7.95207L89.8051 7.48603C89.5791 7.59518 89.5486 7.71414 89.5169 8.02443C89.3581 7.99009 89.3679 8.00358 89.2885 7.94103C89.2237 7.79877 89.2885 7.80122 89.3263 7.55348C89.1802 7.56887 89.0399 7.61935 88.9172 7.70065C88.897 7.62253 88.8783 7.54403 88.861 7.46518C89.0638 7.37443 89.2824 7.3266 89.5046 7.32292C89.5213 7.16637 89.5097 7.00808 89.4704 6.85565C89.4582 6.78084 89.4888 6.80169 89.2421 6.77348C89.2164 6.49631 89.1725 6.42396 89.3727 6.23018C89.275 6.03396 89.4008 6.13943 89.1517 6.07075C89.1517 5.79358 89.2103 5.87452 89.0222 5.75679C88.894 5.69546 88.5802 5.86716 88.3713 5.97754L88.3481 6.21056C88.0672 6.26943 88.0624 6.31848 87.9244 6.51226C87.7925 6.45952 87.8499 6.49631 87.7741 6.43131C87.6557 6.36509 87.867 6.31235 87.9549 6.20197H87.8694V6.12471C87.823 6.0548 87.7057 6.26943 87.6984 6.27679H87.6178C87.7973 5.98735 87.9647 5.82424 87.8438 5.57773V5.50169C87.7949 5.43179 87.6789 5.64641 87.6728 5.65377H87.5116L87.6508 5.0332C87.7117 5.07242 87.7614 5.12696 87.7949 5.19141H87.8731C87.7509 4.65546 87.3711 4.67386 87.1 4.31697C86.7483 4.69962 86.6042 5.84264 86.6848 6.17867L86.4405 6.25103C86.3865 6.11448 86.3203 5.98312 86.2427 5.85858C86.1694 5.79358 86.2256 5.82914 86.0913 5.77763V5.8549H86.0119C86.0826 6.04273 86.2034 6.20737 86.3612 6.33075L86.3465 6.4865C86.1352 6.3479 85.9065 6.23819 85.6663 6.16028C85.7371 5.87943 85.7908 5.5949 85.8263 5.30792C85.7303 5.26141 85.627 5.23234 85.521 5.22207C85.5551 5.06629 85.5432 4.9039 85.4868 4.7548C85.4477 4.63584 85.2303 4.51688 85.0496 4.35622V4.27896C84.9225 4.54877 84.8419 4.83575 84.8102 5.13131C84.7523 4.98255 84.7404 4.81972 84.776 4.66405H84.5391C84.395 5.05405 84.1141 5.22452 83.97 5.66358C84.1104 5.83528 84.2863 5.97018 84.4853 6.06462C84.2289 6.18113 84.0787 5.95914 83.8784 5.81933C83.6976 6.07688 83.6048 6.12594 83.3765 6.11858C83.4619 6.3099 83.3325 6.17377 83.5181 6.27924C83.4884 6.39847 83.4227 6.50556 83.3301 6.58584C83.2653 6.63858 83.1444 6.68396 83.0724 6.73669H82.993C83.0235 6.68518 83.0541 6.63367 83.0882 6.58216H83.0076V6.50367C82.7709 6.79471 82.5565 7.10343 82.3665 7.42716L82.2773 8.35924C82.0612 8.65235 81.4274 9.8432 81.3431 10.6857H81.1086C81.2222 11.4412 79.8678 13.596 79.4099 14.3895C79.0777 14.9635 78.9446 15.4908 78.6148 16.0881C78.0067 17.1919 73.946 26.3802 73.0961 26.9431C73.1913 27.1393 73.068 27.0339 73.3183 27.1038V27.181C73.1775 27.2189 73.0402 27.269 72.908 27.3307H72.8286C72.7798 27.484 72.8543 27.4324 72.8933 27.4889C72.7749 27.6606 72.6723 27.6483 72.4757 27.7133C72.4171 27.9537 72.4097 27.8997 72.4403 28.1008C72.332 28.0638 72.2303 28.0101 72.1386 27.9414L72.0922 28.199C71.8968 28.3768 71.6868 28.5387 71.4669 28.6858C71.3998 28.4271 71.346 28.1683 71.2899 27.9095L71.3057 27.739C71.3057 23.2038 72.1728 16.6694 73.3354 13.4133C73.46 13.0662 73.3354 12.7461 73.4905 12.3794L74.2758 10.6907C74.4468 10.3166 74.1231 10.389 74.3491 10.1412C74.3491 9.79169 74.4138 9.19197 74.2672 8.98594V8.89518C73.979 9.07301 73.8251 9.6065 73.7177 9.94377H73.6371V10.0223H73.5601C73.6065 9.4299 73.8691 9.10245 73.7116 8.69037L73.9485 8.59471C73.8752 8.18141 73.7323 8.35188 73.6297 7.99745C73.5626 7.83311 73.5675 7.91773 73.7067 7.76075C73.6395 7.44188 73.6884 7.52773 73.4698 7.54613V7.23584C73.3561 7.23755 73.2455 7.27343 73.1522 7.33886C72.7517 7.40631 72.7956 7.46273 72.6796 7.7632L72.4427 7.78037C72.4916 7.58414 72.5709 7.39405 72.6772 7.2199V6.90962H72.5184C72.4578 7.16796 72.3511 7.41312 72.2033 7.6332V7.71169H72.124C72.196 7.46763 72.3145 7.45292 72.2009 7.24075V7.08499L71.964 7.10339V7.33641H71.8846V7.25914H71.804C71.8822 7.01386 71.9896 6.85075 71.9615 6.70358C71.9127 6.2915 71.771 6.32339 71.5622 6.1149L71.1665 6.14188L71.0896 6.30499C70.9577 6.61528 71.0139 6.82254 70.8551 7.09848C70.7623 7.25056 70.4277 7.43943 70.3813 7.60009L70.4606 7.82452H70.3813V7.90179L70.1443 7.92018C70.2433 7.53167 70.4059 7.16239 70.6255 6.82745V6.36141C70.4997 6.47546 70.5327 6.4166 70.4692 6.60547C70.2579 6.52943 70.3043 6.46811 70.0723 6.40311C69.9962 6.65581 69.8909 6.89867 69.7584 7.12669V7.20396H69.5997V6.58584C69.5386 6.47424 69.4336 6.54905 69.3615 6.37367C69.1454 6.49509 69.1612 6.49509 69.1246 6.77716C69.0494 6.70106 68.9699 6.6294 68.8865 6.56254C68.7082 6.93292 68.4981 7.28613 68.2575 7.61971V7.77424C68.194 7.68839 68.194 7.65037 68.1781 7.47254C67.9522 7.49707 68.0621 7.53386 67.9412 7.48971C67.7385 7.61235 67.7299 7.69697 67.7043 7.97292C67.5419 7.9533 67.5529 7.97292 67.4674 7.91405H67.388C67.4368 8.15197 67.4039 8.10292 67.5468 8.21084C67.432 8.4132 67.5138 8.33839 67.2305 8.39235C67.3135 8.44877 67.2512 8.41688 67.3904 8.45613C67.2097 8.97367 66.8067 9.48999 66.6052 9.98914C66.1545 11.0954 65.9799 12.0728 65.5085 13.1766C64.9174 14.5637 64.1481 16.0991 63.469 17.4445C62.9867 18.3974 62.5128 20.0286 61.741 20.6774C61.7817 20.7591 61.8353 20.8336 61.8997 20.8981C61.8204 20.9594 61.5847 21.0232 61.5041 21.0821C61.399 21.2611 61.4809 21.3028 61.5041 21.4708C61.399 21.6597 61.0693 21.6646 60.9508 21.824C60.6248 22.2692 60.4514 22.8052 60.0068 23.1375V23.4478C59.6405 23.5361 59.5708 23.6551 59.533 24.0267C59.2607 24.1015 58.4436 25.0606 58.3484 25.2801C58.3777 25.3549 58.4033 25.4297 58.4314 25.5082C58.175 25.9595 57.4947 25.924 57.5644 26.5053C57.4276 26.4636 57.4862 26.5053 57.4044 26.4378C57.3531 26.5077 57.2993 26.6966 57.2468 26.7616V26.8389H57.0905L56.944 27.2399C56.7913 27.3598 56.6296 27.4676 56.4603 27.5624C56.3797 27.3049 56.2332 26.9738 56.1538 26.6708L56.1819 26.5617C56.1692 26.3493 56.1692 26.1363 56.1819 25.924C56.2185 25.7093 56.2491 25.4947 56.21 25.4788C56.3272 24.6571 56.4982 23.8415 56.7254 23.0419C57.1528 21.217 57.2395 19.3872 57.7878 17.7192L57.7414 17.2606C57.8269 16.8877 58.0895 16.2623 58.1689 15.9422C58.1273 15.7925 58.0834 15.6441 58.0431 15.4945L58.2018 15.47C58.1896 15.3657 58.1786 15.2652 58.1689 15.1609L58.3203 15.0579L58.2018 14.6888C58.2434 14.6005 58.5291 14.5048 58.5731 14.3907L58.5267 13.9333C58.8039 13.2097 59.1593 12.3316 59.4121 11.608C59.522 11.2842 59.4121 11.0905 59.5708 10.801C59.87 10.2504 60.3207 9.70216 60.2584 8.8915L60.4953 8.85226C60.4685 8.40161 60.503 7.94939 60.5979 7.50811C60.6072 7.29931 60.5595 7.09193 60.4599 6.90839V6.83358C60.2254 7.04084 60.4721 7.28367 60.1094 7.3499C60.2181 7.6565 60.1326 7.48235 60.3659 7.54122C60.2633 7.70433 60.1607 7.70924 60.0838 7.90056C59.897 7.86435 59.7073 7.84465 59.5171 7.84169C59.5537 7.69943 59.5171 7.76443 59.5782 7.67367C59.7418 7.62952 59.6392 7.59396 59.7467 7.72518C60.1766 7.36094 59.7101 6.82009 60.0032 6.43254C59.7027 5.85858 59.4902 6.05848 59.5745 5.3349L59.4939 5.34962C59.1336 5.24905 58.9175 5.74575 58.6757 5.95424C58.7978 6.17131 58.7196 6.12839 59.0127 6.1333V6.20811L58.9334 6.22037L58.9492 6.37613L58.8711 6.38839V6.31113C58.6795 6.31988 58.4877 6.30004 58.302 6.25226C58.3545 6.05848 58.3203 6.1198 58.4388 5.99348V5.91622C58.3288 5.97018 58.2275 6.03886 58.1383 6.12226C58.0577 5.87697 58.1383 5.90518 58.1628 5.57282L57.9271 5.6133C57.9061 5.83192 57.8162 6.03813 57.6706 6.20197V6.28046L57.59 6.29273C57.5831 6.0869 57.6171 5.88174 57.6901 5.68927C57.763 5.4968 57.8735 5.32087 58.015 5.17179L57.9686 4.71188L57.811 4.73641L57.8416 5.04301L57.6046 5.08348C57.6645 5.29075 57.7231 5.29075 57.6437 5.46613C57.5668 5.5949 57.5436 5.46613 57.4227 5.6599C57.281 5.63537 57.3445 5.6599 57.2578 5.61084C57.2578 5.50782 57.4557 4.92037 57.4251 4.8799C57.5228 4.67264 57.4459 4.75235 57.7231 4.67509L57.7085 4.52056C57.4715 4.55122 57.4837 4.50216 57.3909 4.57452C57.1674 4.7033 57.1907 4.78914 57.0307 4.94613C57.1186 5.11782 57.0722 5.06877 57.2114 5.15094V5.22575L56.8255 5.37047C56.7657 5.75065 56.5861 5.80462 56.5935 6.26697C56.2027 6.43499 56.1147 6.87528 55.8839 7.16716V7.24197H55.8058C55.829 7.05311 55.8632 6.86546 55.9096 6.6815L56.1453 6.6398C56.1453 6.5515 56.1306 6.48037 56.1282 6.41782L56.0061 6.50367V6.57971H55.9267C55.9267 6.47179 55.9425 6.36263 55.9755 6.26084L55.6592 6.31358L55.6433 6.15905L55.7936 6.05603V5.97999C55.8656 5.89047 55.8803 6.04254 55.8803 6.04254C55.9474 6.11613 55.9352 6.10754 55.9841 6.25962C56.1673 6.31971 56.0634 6.23877 56.1282 6.34301C56.1272 6.27039 56.1444 6.19868 56.1781 6.13442C56.2118 6.07016 56.261 6.01539 56.3211 5.97509C56.1844 5.80462 56.2747 5.85858 55.989 5.87452C56.0744 5.68075 56.1453 5.72735 56.2796 5.58999L56.359 5.57773C56.2912 5.44592 56.1978 5.32914 56.0842 5.23433C56.0842 5.23433 56.0683 5.08103 55.9987 5.17179V5.24905C55.8216 5.45386 55.9254 5.29565 55.9499 5.56792C55.7239 5.51886 55.5921 5.16933 55.4797 4.86886H55.3991L55.338 5.03443C55.3551 5.09207 55.3173 5.08839 55.509 5.16075C55.476 5.65745 55.2831 5.25886 55.1707 5.76292L55.0132 5.79235V5.71386C54.9411 5.64763 54.9827 5.7016 54.9179 5.57528C55.0889 5.46367 55.1316 5.48452 55.2086 5.29075L55.2892 5.27848L55.2733 5.12518C54.6554 5.32141 54.3366 6.22037 53.7297 6.55396C53.7297 6.63245 53.7468 6.70726 53.7541 6.78452C53.886 6.71094 53.8298 6.75631 53.9043 6.6815L54.1388 6.6398V6.71707L53.9861 6.82009C53.8909 7.01141 53.7956 7.02245 53.6808 6.95009C53.5132 7.14143 53.3839 7.36335 53.2998 7.60377C53.2473 7.7632 53.4378 7.83679 53.4097 7.89565C53.3633 7.99867 52.9798 8.3715 52.9127 8.52603C52.3704 9.7598 52.1823 10.9666 51.6853 12.2408C50.0232 16.51 49.4871 22.0264 48.5614 27.2632L48.6615 28.2566C48.3831 30.3256 48.896 33.1095 49.4333 34.3629C49.5127 34.5432 49.8095 34.6205 49.873 34.7554C49.873 34.9136 49.8534 35.0706 49.84 35.2288C49.9641 35.5286 50.1463 35.8007 50.3761 36.0292C50.6059 36.2576 50.8787 36.4379 51.1785 36.5594C51.2786 36.5447 51.2225 36.6036 51.3275 36.4564C51.8062 36.4822 51.8636 36.9727 52.2007 37.1677C52.3362 37.2008 52.2373 37.0635 52.4376 37.126C52.8491 37.1003 53.0079 37.3223 53.2094 37.5418V37.57C53.6002 37.5455 53.9947 37.5921 54.3696 37.7073L54.9228 37.6656V37.5111H54.8434V37.4326C54.5088 37.4486 54.6322 37.3554 54.4502 37.5418H54.2902L54.3671 37.2229C54.6944 37.2229 54.9253 37.2229 55.0804 37.402C55.1854 37.3529 55.139 37.3689 55.1597 37.3198C55.2757 37.1174 55.139 37.229 55.3967 37.1469V37.4572C55.487 37.3811 55.6238 37.2855 55.7105 37.1984C55.785 37.3431 55.7447 37.2548 55.7105 37.4314C55.9377 37.4044 55.8241 37.3689 55.9474 37.413C56.1611 37.2683 56.028 37.413 56.0244 37.1751C56.6106 37.3554 56.6765 36.844 57.2908 36.8464C57.3445 36.6943 57.3714 36.5349 57.3677 36.373C57.4318 36.4067 57.4867 36.4555 57.5277 36.5153C58.0248 36.3007 58.9321 35.0276 59.329 34.5923C61.0925 32.7269 62.9952 30.9044 64.4534 28.7717H64.6109C64.915 29.4217 65.1519 33.4664 65.787 33.941C66.2608 34.2906 67.0741 34.4794 67.2976 35.0657C67.4686 34.9835 67.4112 34.9908 67.5345 34.8927C68.2673 35.5955 69.3078 35.8824 70.5486 36.0578C70.5644 36.0387 70.5816 36.0207 70.5999 36.0039C70.6121 36.0039 70.6243 36.0284 70.6389 36.037L70.6182 36.1559C70.6532 36.1294 70.6867 36.1007 70.7183 36.0701H70.744L70.8441 35.9131C70.9992 36.0112 70.9039 35.9131 70.8685 36.2111C71.1042 36.1277 71.0945 36.1007 71.2129 35.9057C71.2642 35.9916 71.2557 35.9781 71.2691 36.1412C71.7319 36.0931 72.1782 35.9423 72.5758 35.6997C72.6076 35.8898 72.5917 35.8224 72.5453 36.0088C72.6705 35.9576 72.7848 35.8832 72.8824 35.7892H72.9007C72.9469 35.7613 72.996 35.7387 73.0472 35.7218C72.9678 35.7794 73.0142 35.7561 72.9007 35.7892H72.8824L72.8677 35.9389H73.184L73.2072 35.7058L73.4282 35.8665C73.8044 35.4949 74.0071 35.5072 74.52 35.1871C75.2198 34.7505 75.8634 34.0465 76.496 33.5155C76.5632 33.4321 76.5534 33.4419 76.5974 33.2824H76.8331C76.816 33.2027 76.7952 33.1242 76.7769 33.047C77.8064 32.6226 79.5674 30.0202 80.4113 28.9115C83.0211 25.4873 85.4196 17.7793 87.6654 13.9615C87.9708 13.4452 88.1063 12.5389 88.3103 12.1832C88.5594 11.7871 88.7841 11.3762 88.9819 10.9507C89.1822 10.449 89.0589 10.1412 89.2653 9.62981C89.4729 9.18339 89.9675 8.3899 89.7611 7.95207ZM59.2081 8.63641L59.1935 8.48433L59.3498 8.45858L59.3657 8.61065L59.2081 8.63641ZM59.6173 7.48113L59.6026 7.32905L59.7589 7.3033L59.7748 7.45537L59.6173 7.48113ZM59.5586 6.85811C59.7589 7.01018 59.5745 7.02613 59.8151 6.97216L59.8395 7.2015H59.4365C59.459 7.08131 59.5002 6.96543 59.5586 6.85811ZM59.3608 8.05999L59.4377 8.04773V7.96924C59.5098 8.03914 59.4683 7.98518 59.533 8.1115C59.5232 8.11886 59.2106 8.14584 59.3583 8.05999H59.3608ZM59.3852 5.95301C59.5122 6.13452 59.4267 6.14679 59.3449 6.34914L59.268 6.36141C59.2717 6.21762 59.3128 6.07711 59.3852 5.95301ZM59.3632 6.96358L59.2057 6.99056L59.1825 6.75999C59.3913 6.82745 59.268 6.72933 59.3608 6.96358H59.3632ZM59.1495 8.01339C59.3498 8.16546 59.1654 8.18141 59.406 8.12745L59.4304 8.35679H59.0274C59.0492 8.23674 59.0896 8.12087 59.1471 8.01339H59.1495ZM58.9517 9.21528L59.0286 9.20301V9.12452C59.1007 9.19443 59.0591 9.14046 59.1239 9.26433C59.1129 9.26433 58.8015 9.30113 58.9492 9.21528H58.9517ZM58.9761 7.10584C59.1031 7.2898 59.0176 7.30207 58.9395 7.50443L58.8589 7.51669C58.863 7.37219 58.9041 7.231 58.9761 7.10584ZM57.9918 7.66509C58.1322 7.68962 58.0712 7.66509 58.1554 7.71414H58.0785V7.79141H57.9991L57.9918 7.66509ZM58.5621 6.56867H58.4852V6.64594H58.4058L58.3899 6.49386C58.5291 6.53556 58.4778 6.51226 58.5621 6.56867ZM57.5326 15.3927H57.6132V15.3155C57.6853 15.3854 57.6437 15.3302 57.7085 15.4553C57.6999 15.4307 57.3885 15.4675 57.5326 15.3817V15.3927ZM58.3459 6.4448L58.2666 6.45707V6.53556L58.1872 6.54782L58.1628 6.31848C58.3777 6.3749 58.2238 6.26575 58.3459 6.43377V6.4448ZM58.1261 6.63858C58.175 6.68518 58.2385 6.62263 58.2202 6.77839H58.1408C58.0663 6.85197 58.12 6.80905 57.9918 6.88141L57.9759 6.72933C58.1066 6.65943 58.0504 6.70358 58.1249 6.62754L58.1261 6.63858ZM57.2908 16.5971C57.2908 16.5971 56.9794 16.6339 57.1259 16.548H57.2041V16.4707C57.2676 16.5174 57.2273 16.4634 57.2908 16.5873V16.5971ZM57.7927 6.53801C57.8245 6.55518 57.9551 6.53801 57.888 6.67782C57.7952 6.64594 57.6279 6.56867 57.7927 6.52697V6.53801ZM56.867 19.0916H56.7876V19.1689H56.7083L56.6924 19.0143C56.8426 19.0573 56.7803 19.0315 56.8658 19.0806L56.867 19.0916ZM51.3898 34.1066V34.2624H51.3092V34.1066H51.3898ZM51.2505 35.1405C51.3172 35.2045 51.3729 35.2791 51.4154 35.3612C51.1528 35.241 51.2579 35.3342 51.2505 35.1172V35.1405ZM51.4227 35.7635L51.4081 35.6114L51.4875 35.5991L51.5033 35.7512L51.4227 35.7635ZM53.6576 7.63811L53.8933 7.59886C53.7651 7.66631 53.798 7.66018 53.6564 7.6148L53.6576 7.63811ZM53.8371 7.37933C53.8005 7.30575 53.7675 7.23462 53.7345 7.16471L53.8909 7.1365L53.9153 7.36584L53.8371 7.37811V7.37933ZM54.0667 6.48405L54.3036 6.44358C54.1742 6.51103 54.2084 6.5049 54.0667 6.46197V6.48405ZM52.4596 36.1179C52.3912 36.0713 52.2031 36.0357 52.142 35.9916C52.0798 35.9474 52.1127 35.9707 52.059 35.8444C52.252 35.8788 52.44 35.9401 52.6171 36.0247V36.102L52.4596 36.1179ZM54.3647 36.7998V36.8771L53.9678 36.8317C53.9692 36.8133 53.9692 36.7949 53.9678 36.7765L54.1388 36.7299L54.3647 36.7998ZM57.2883 5.86348H57.209V5.93707L57.132 5.95301L57.1162 5.79848C57.2627 5.81443 57.2016 5.79358 57.2883 5.84018V5.86348ZM56.9098 6.08301L57.1467 6.04131C57.1162 6.21669 57.0746 6.21301 57.1784 6.34792V6.42396C56.9513 6.45216 57.0563 6.39084 56.9415 6.46565L56.8609 6.47792C56.8687 6.33521 56.885 6.19309 56.9098 6.05235V6.08301ZM56.8927 6.70848H56.8145L56.7999 6.55518C56.8719 6.61282 56.8304 6.56867 56.8927 6.68518V6.70848ZM56.8927 7.01877L56.8121 7.03103V7.10584L56.7327 7.12179L56.7168 6.96726C56.856 6.96971 56.7913 6.94641 56.8792 6.99547L56.8927 7.01877ZM56.5141 7.2383L56.751 7.1966C56.7193 7.37197 56.6777 7.3683 56.7815 7.5032V7.57924C56.5556 7.60745 56.6594 7.54613 56.5446 7.62094L56.4701 7.60254C56.4726 7.47254 56.4836 7.34377 56.5007 7.21499L56.5141 7.2383ZM56.4982 7.86377H56.4188L56.403 7.71169C56.4701 7.76811 56.4213 7.71414 56.486 7.84047L56.4982 7.86377ZM55.647 6.92311V7.15613H55.5664C55.538 7.08133 55.5107 7.0061 55.4846 6.93046L55.647 6.92311ZM53.8274 37.1628C53.9629 37.2021 53.9043 37.1628 53.9837 37.2278C53.8347 37.1579 53.8957 37.1861 53.8139 37.1322L53.8274 37.1628ZM54.3 37.05L54.5369 37.1089C54.5381 37.1346 54.5381 37.1604 54.5369 37.1861C54.3391 37.1003 54.3952 37.1346 54.2878 37.0181L54.3 37.05ZM56.4371 36.8072C56.5751 36.8476 56.5165 36.8072 56.5959 36.8734C56.4469 36.8096 56.5055 36.8329 56.4249 36.7753L56.4371 36.8072ZM65.5146 29.3653V29.2083C65.5781 29.2819 65.5451 29.2255 65.594 29.3579L65.5146 29.3653ZM72.4635 8.0465V8.27952C72.4024 8.1998 72.4122 8.21207 72.3841 8.05263L72.4635 8.0465ZM71.7454 6.55028V6.7833L71.5085 6.7232C71.6171 6.49018 71.4804 6.60179 71.7381 6.51962L71.7454 6.55028ZM68.8242 34.9504C68.9109 34.9839 68.9917 35.0311 69.0635 35.0902C68.8681 35.0338 68.9243 35.0693 68.8242 34.9504ZM69.3798 35.3747V35.219L69.5386 35.284V35.3612L69.3798 35.3747ZM69.6192 35.3563L70.0137 35.4029V35.4802C69.7254 35.4777 69.7425 35.4961 69.6107 35.3575L69.6192 35.3563ZM71.5976 35.6691C71.4633 35.631 71.5219 35.669 71.4413 35.6053C71.5707 35.6433 71.5109 35.6151 71.5903 35.6691H71.5976ZM71.4804 35.8444C71.611 35.8972 71.5573 35.8604 71.6294 35.9254C71.4901 35.8714 71.5475 35.907 71.473 35.8444H71.4804ZM72.8824 35.4103C72.9268 35.3783 72.9742 35.3507 73.024 35.3281C72.9422 35.3931 72.9837 35.3649 72.875 35.4103H72.8824ZM74.2856 34.0698C74.4223 34.1078 74.3625 34.0698 74.4431 34.1336C74.299 34.0931 74.3576 34.1238 74.2782 34.0698H74.2856ZM74.4443 34.5861C74.5762 34.6401 74.52 34.6045 74.5945 34.6695C74.4553 34.607 74.5115 34.6438 74.437 34.5788L74.4443 34.5861ZM74.6825 34.1238V33.9656H74.7594V34.1189L74.6825 34.1238ZM74.9108 34.6744H74.8315L74.8473 34.5162H74.9243C74.9139 34.566 74.907 34.6164 74.9035 34.6671L74.9108 34.6744ZM82.8562 7.5866H82.7768V7.50933H82.6962C82.7451 7.39896 82.8086 7.29348 82.8843 7.19905C82.949 7.34377 82.8928 7.34377 82.8477 7.57924L82.8562 7.5866ZM83.0076 6.8115C83.1237 6.91207 83.3007 6.96358 83.1371 7.12424C83.0658 7.03057 83.0188 6.92058 83.0003 6.80414L83.0076 6.8115ZM83.1786 7.51424H83.258V7.43697C83.3117 7.51669 83.2824 7.45537 83.3191 7.59273C83.3191 7.5866 83.0137 7.56329 83.1701 7.50688L83.1786 7.51424ZM83.7905 6.90471H83.5535C83.5535 6.8532 83.5535 6.80169 83.5658 6.75018H83.8027L83.7905 6.90471ZM84.6392 5.4416H84.4829C84.4646 5.36433 84.4438 5.28707 84.4267 5.20858C84.5574 5.26131 84.5037 5.22452 84.5782 5.28952H84.6551L84.6392 5.4416ZM85.1363 5.21716C84.9567 5.14358 85.008 5.1865 84.9152 5.05773L85.1448 5.1399L85.1363 5.21716ZM85.295 5.99226L85.3341 5.60471C85.4709 5.73594 85.4611 5.71877 85.4562 5.99471L85.295 5.99226ZM85.8959 7.08499C85.6394 6.97216 85.7383 7.06047 85.7591 6.8483L85.9093 6.92801L85.8959 7.08499ZM87.4065 5.32264V5.3999C87.3528 5.30792 87.3553 5.27113 87.3577 5.08716H87.2783C87.2361 5.17295 87.2165 5.26817 87.2215 5.36372C87.2264 5.45927 87.2556 5.55196 87.3064 5.63292V5.71018C87.1981 5.67236 87.0963 5.61773 87.0048 5.5483C87.0512 5.39009 87.0389 5.40113 87.1049 5.31773C87.1831 4.80018 87.2649 5.08226 87.4737 4.78056C87.516 4.86944 87.5321 4.96857 87.5202 5.06633C87.5083 5.16409 87.4689 5.25641 87.4065 5.33245V5.32264ZM87.6203 7.1966V7.27386H87.5433C87.5946 7.17649 87.6308 7.07187 87.6508 6.96358C87.6996 7.1083 87.7021 7.08622 87.6129 7.20763L87.6203 7.1966ZM88.7145 8.1532H88.7939L88.7707 8.38622C88.7707 8.38622 88.7011 8.41688 88.6986 8.30773H88.6217L88.7145 8.1532ZM88.6192 6.67169L88.6034 6.82745C88.4641 6.87405 88.5264 6.84216 88.4385 6.90103H88.3615L88.4544 6.75018C88.088 6.91452 88.143 7.15858 88.0013 7.36462V7.43943H87.9207C88.0037 6.54292 87.9805 6.77716 88.3335 6.43377H88.6498C88.6107 6.67169 88.5753 6.56867 88.6192 6.68273V6.67169ZM88.5289 10.0971V10.1768H88.4483C88.4707 10.0688 88.5076 9.96442 88.5582 9.8665C88.607 10.0112 88.6082 9.97565 88.5289 10.1069V10.0971ZM88.9893 9.4115C88.8732 9.46546 88.8867 9.43603 88.7597 9.32933C88.6803 9.25575 88.7597 9.32933 88.6876 9.24839C88.8659 9.13065 89.0149 8.9749 89.1261 8.79094C89.1546 8.8978 89.1571 9.01 89.1333 9.11803C89.1095 9.22606 89.0601 9.32673 88.9893 9.4115ZM89.4008 8.40584H89.3214C89.2567 8.54075 89.3007 8.48433 89.2286 8.5616C89.1566 8.63886 89.2054 8.5898 89.0638 8.63641V8.55914H88.9844L89.1077 8.09679C89.2445 8.19735 89.2262 8.25131 89.4008 8.33348V8.40584ZM87.0988 35.5734C87.3553 35.5096 87.2173 35.6126 87.3553 35.4189C87.3553 35.3183 87.6337 35.0644 87.5543 34.8731C87.4591 34.7725 87.3357 34.6156 87.2514 34.7186C87.0841 34.9295 87.0524 35.3845 86.9425 35.6507H86.8643V35.5734C86.7984 35.414 86.9376 35.0779 87.0011 34.7983H86.8423V34.721H86.7642C86.6787 34.9786 86.7923 34.84 86.5871 34.9541L86.6115 34.6438C86.9242 34.5211 86.7617 34.5187 86.8704 34.255C86.6142 34.152 86.4043 33.9583 86.2806 33.7105C86.4454 33.6823 86.432 33.6921 86.5224 33.6332C86.4369 33.4676 86.5065 33.4186 86.5566 33.1647H86.4784V33.242C86.4088 33.3401 86.3477 33.4456 86.2989 33.5547C86.0131 33.5707 86.1438 33.4382 86.0412 33.7105C86.4296 34.0171 86.515 34.5223 86.2488 35.111H86.0925L86.1108 34.8756C86.2194 34.7136 86.2873 34.5276 86.3086 34.3335C86.1157 34.2783 86.1743 34.1495 86.0766 34.255C86.0499 34.4088 86.038 34.5649 86.0412 34.721L85.4062 34.7983C85.3744 34.5407 85.2437 34.5775 85.1973 34.4107L85.3133 33.9435C85.3133 33.9116 85.1045 33.762 85.0911 33.7105C85.0056 33.3094 85.372 32.7306 84.9494 32.4644C84.9372 32.7355 84.8639 33.0004 84.7333 33.2395V33.085C84.4402 32.6484 84.7101 31.4122 84.9042 30.8308C85.4088 29.2889 85.8678 27.7323 86.2806 26.1631C86.5822 25.0471 86.962 22.9965 87.5678 21.7333C87.5274 21.4489 87.5221 21.1605 87.5519 20.8748C87.8999 19.7968 88.1698 18.2564 88.6351 16.9981C88.7206 16.5848 88.8024 16.1678 88.8928 15.7545C89.2995 14.7648 89.6646 13.5654 89.9992 12.5658C90.0518 12.2286 90.1055 11.8913 90.1543 11.554C90.5451 10.4969 91.1472 9.15886 91.2937 7.97782C91.4586 7.94839 91.4464 7.95943 91.5368 7.89933C91.3866 7.58047 92.1279 6.52575 92.3794 6.11122C92.5296 6.17745 92.6847 6.22896 92.8435 6.26575C92.9669 5.26377 93.9499 4.59905 94.6448 4.40037V4.47764C94.7254 4.55122 94.6448 4.47763 94.7193 4.5549C94.5239 4.6849 94.6241 4.83207 94.519 5.10065H94.6778C94.9025 4.82103 95.2518 4.86518 95.5021 4.63339C95.7061 4.44452 95.6878 4.25075 95.9369 4.09009L95.9222 4.32311C95.7403 4.61974 95.5842 4.93159 95.4557 5.25518C95.5437 5.4465 95.4179 5.31037 95.6023 5.41094C95.7244 5.0749 95.86 5.15339 96.0322 4.9449L96.3289 4.24216H96.5658L96.5243 4.78792C96.4034 4.84924 96.2923 4.92773 96.1921 5.02094C96.2842 5.07826 96.3599 5.15854 96.412 5.25396C96.2898 5.3165 96.1799 5.39499 96.0786 5.48575C96.1872 5.52377 96.2886 5.57773 96.3827 5.64396C96.2459 5.74697 96.2898 5.69301 96.2056 5.87697H96.5219C96.511 5.61679 96.5307 5.35622 96.5805 5.10065C96.7478 5.07245 96.7356 5.08226 96.8223 5.02339C97.0385 4.80877 96.9176 4.63584 97.1679 4.63584C97.6821 5.10065 97.842 5.87575 97.9751 6.50122H98.0557C98.0378 6.23564 98.0843 5.96965 98.1913 5.72613C98.2884 5.66789 98.4009 5.64092 98.5137 5.64886V5.72613H98.5907C98.6065 5.88065 98.6212 6.03641 98.6346 6.19216C98.5198 6.23139 98.4099 6.28408 98.3073 6.34914C98.6273 6.48896 98.8227 6.44726 98.8227 6.89122H98.9021C98.9753 6.97216 98.8166 6.96971 98.8166 6.96971C98.609 7.12669 98.6187 6.90471 98.4771 7.28245C98.7116 7.25056 98.5858 7.15245 98.7091 7.35971C98.8325 7.56697 98.7763 8.65235 98.6651 8.99084C98.5369 9.3649 98.3 9.76594 98.1864 10.0824C97.9886 10.6293 97.9935 11.4277 97.7187 12.1023C96.8589 14.2117 96.3509 17.068 95.5229 19.2572C95.181 20.161 95.2664 21.2072 94.7767 21.8228C94.8903 22.6973 94.1197 25.426 93.7472 26.1006L93.5616 27.4987C93.078 28.8723 92.7739 30.5365 92.2085 31.8549C91.9031 32.5674 91.9508 33.2506 91.2925 33.5657C91.1912 33.6307 91.2168 33.594 91.0483 33.643C90.8798 34.0257 90.6123 34.1336 90.4254 34.5751H90.5036V34.6536C90.7869 34.434 91.0006 34.1373 91.1191 33.7975H91.1985L91.1619 34.266C91.0732 34.3497 91.0108 34.4576 90.9823 34.5763C90.2777 34.9381 89.9125 35.5194 89.2384 35.7414C89.2579 35.517 89.3202 35.6359 89.2555 35.5084C89.1688 35.5709 89.2311 35.5378 89.0906 35.5869C89.1121 35.405 89.0992 35.2207 89.0528 35.0436H88.8952C88.8342 35.4336 88.7609 35.5991 88.3811 35.6641L88.3933 35.5096C88.4618 35.4675 88.5204 35.411 88.5649 35.3438C88.6094 35.2767 88.6388 35.2006 88.651 35.1208H88.5741V35.0436H88.4934C88.4556 35.3624 88.4605 35.398 88.2248 35.5096V35.5869H88.1283V35.4311C88.4043 35.111 88.6205 34.7419 88.7633 34.3433H88.684C88.5655 34.5211 88.5789 34.4856 88.5142 34.499C88.2858 34.1569 88.5423 33.8907 88.7487 33.4873H88.6718C88.5142 33.6994 88.2004 33.811 88.077 34.0306C87.8205 34.4806 87.9097 35.8113 87.1489 35.8972V35.8187H87.0683L87.0988 35.5734ZM98.322 8.20226V8.04405C98.09 8.04405 98.2157 7.97046 98.0851 8.04405H98.0057C98.0789 8.10905 98.0228 8.07348 98.1571 8.12499C98.245 8.18631 98.1876 8.14952 98.322 8.20226ZM98.1999 8.74556C98.1547 8.48679 98.2487 8.6266 98.0619 8.51254L98.0435 8.74556H98.1999ZM98.3464 6.80169L98.3598 6.64594H98.2011V6.7232L98.3464 6.80169ZM98.1205 5.6366C97.9275 5.52254 98.0289 5.65131 97.98 5.40358H98.0594V5.32264C98.1937 5.37169 98.1339 5.33858 98.2108 5.40358C98.3989 5.50169 98.2682 5.36924 98.3574 5.55811C98.1962 5.58631 98.2084 5.5765 98.1205 5.63537V5.6366ZM98.0643 5.32264H97.9104V5.16811H98.0692L98.0643 5.32264ZM97.7504 6.33565C97.7764 6.12778 97.7661 5.91695 97.7199 5.71263C97.5989 5.81494 97.5095 5.94982 97.4622 6.10141H97.5392C97.6039 6.32584 97.5343 6.24613 97.7504 6.33565ZM97.494 6.56867V6.41414H97.3352L97.323 6.56867H97.494ZM97.3535 7.34377L97.3951 6.87773H97.2387L97.2021 7.34377H97.3535ZM97.1374 5.16811H97.2155L97.3047 5.01235H97.2277C97.2277 4.90443 97.1533 4.93509 97.1533 4.93509L97.1374 5.16811ZM97.0653 6.10018C97.0653 6.00207 97.2302 5.95669 97.0836 5.86716C97.0836 5.78499 96.9188 6.08301 96.909 6.10018H97.0653ZM94.5642 5.79358V5.63782H94.4848V5.79358H94.5642ZM94.0342 5.48084L94.1295 5.24782H93.9719C93.9829 5.40726 93.9719 5.39499 94.0257 5.47839L94.0342 5.48084ZM93.448 5.94811L93.6398 5.48084H93.5604C93.3894 5.72367 93.249 5.74697 93.4382 5.94688L93.448 5.94811ZM92.4173 7.1132C92.5028 6.94396 92.4942 7.00282 92.5956 6.88141H92.3587L92.2659 7.03716L92.4173 7.1132ZM89.816 35.1858L89.9137 34.9528H89.7562L89.744 35.1086L89.6585 35.1858H89.816ZM91.6907 9.21282L91.7835 9.05462C91.6369 9.15273 91.6907 9.21282 91.6907 9.21282ZM89.4875 35.3416C89.5205 35.2324 89.3849 35.2275 89.341 35.1858C89.2799 35.2594 89.4668 35.3183 89.4875 35.3416ZM88.9013 34.7186V34.5628H88.8232C88.8745 34.7002 88.8452 34.6376 88.9013 34.7186ZM88.9526 34.0183L88.9648 33.8625H88.9001C88.9294 33.9999 88.9001 33.9398 88.9551 34.0183H88.9526ZM88.7255 34.9528V34.7958H88.6461C88.6998 34.9332 88.6693 34.8731 88.7279 34.9528H88.7255ZM88.3652 34.4856H88.2077V34.4083C88.3493 34.4574 88.2907 34.423 88.3677 34.4819L88.3652 34.4856ZM87.503 34.4083V34.2525H87.4261C87.4774 34.3874 87.4468 34.3286 87.5055 34.4083H87.503ZM88.3066 20.5645C88.3335 20.4335 88.3163 20.2972 88.2577 20.177C88.2314 20.321 88.1664 20.455 88.0697 20.5645H88.3066ZM88.1026 21.1875L88.2004 20.9545C87.9659 21.0428 87.9866 21.0073 88.1051 21.1875H88.1026ZM86.8985 33.0065C86.8216 32.9452 86.8777 32.982 86.7459 32.9292C86.824 32.9906 86.7666 32.9574 86.9009 33.0065H86.8985ZM86.7984 32.2314L86.8106 32.0769H86.7312L86.719 32.2314H86.7984ZM87.4127 24.0672V23.9114H87.3565C87.387 24.0463 87.3565 23.985 87.4151 24.0647L87.4127 24.0672ZM86.5993 32.7772L86.6237 32.4669H86.5431C86.5273 32.7379 86.421 32.5993 86.6018 32.7735L86.5993 32.7772ZM86.6482 26.8658L86.6604 26.7113H86.5859V26.8658H86.6494H86.6482ZM85.4465 34.4819C85.4465 34.3016 85.4465 34.2636 85.3903 34.1704C85.3927 34.3568 85.3903 34.3948 85.4465 34.4831V34.4819ZM85.5625 32.9317L85.5747 32.7772H85.4953V32.9317H85.5625ZM85.179 31.7666C85.4355 31.7016 85.295 31.8034 85.4355 31.6108C85.3793 31.5311 85.411 31.5888 85.3695 31.4539H85.2901V31.5311C85.2095 31.6145 85.2205 31.6047 85.179 31.7641V31.7666ZM85.2095 32.3872C85.3158 32.2007 85.383 32.2523 85.3133 32.0769L85.2511 31.8439H85.1717L85.1302 32.3872H85.2095Z" fill="#14004B"/>
</g>
<path d="M87.4393 39.3396H89.6993V53.3396H87.4393V48.1796C86.6793 48.5396 85.5793 48.8396 84.0793 48.8396C81.1793 48.8396 79.1993 47.4196 79.1993 44.1196V39.3396H81.4793V43.8596C81.4793 45.9596 82.6393 46.6796 84.5193 46.6796C85.7593 46.6796 86.8193 46.4596 87.4393 46.0796V39.3396ZM101.223 42.3396H103.483V53.3396H101.223V51.4996C100.423 52.7596 99.1029 53.5796 97.3829 53.5796C94.4429 53.5796 92.3029 51.1996 92.3029 47.8396C92.3029 44.4796 94.4829 42.0996 97.3629 42.0996C99.1029 42.0996 100.423 42.9596 101.223 44.2196V42.3396ZM97.8629 51.4196C99.7829 51.4196 101.243 49.9596 101.243 47.8396C101.243 45.7396 99.7829 44.2596 97.8629 44.2596C95.9429 44.2596 94.5829 45.7396 94.5829 47.8396C94.5829 49.9596 95.9629 51.4196 97.8629 51.4196ZM114.72 42.3396V44.4596H111.14V53.3396H108.88V44.4596H105.28V42.3396H111.14H114.72Z" fill="#14004B"/>
</g>
<defs>
<clipPath id="clip0_239_7805">
<rect width="138" height="65" fill="white"/>
</clipPath>
</defs>
</svg>
