<svg width="60" height="60" viewBox="0 0 60 60" fill="none" xmlns="http://www.w3.org/2000/svg">
<circle cx="30" cy="30" r="30" fill="#4164EE"/>
<path d="M42.75 32.25V37.5L37.5 32.25H27C26.0717 32.25 25.1815 31.8813 24.5251 31.2249C23.8687 30.5685 23.5 29.6783 23.5 28.75V16.5C23.5 14.575 25.075 13 27 13H44.5C45.4283 13 46.3185 13.3687 46.9749 14.0251C47.6313 14.6815 48 15.5717 48 16.5V28.75C48 29.6783 47.6313 30.5685 46.9749 31.2249C46.3185 31.8813 45.4283 32.25 44.5 32.25H42.75ZM37.5 35.75V39.25C37.5 40.1783 37.1313 41.0685 36.4749 41.7249C35.8185 42.3813 34.9283 42.75 34 42.75H23.5L18.25 48V42.75H16.5C15.5717 42.75 14.6815 42.3813 14.0251 41.7249C13.3687 41.0685 13 40.1783 13 39.25V27C13 25.075 14.575 23.5 16.5 23.5H20V28.75C20 30.6065 20.7375 32.387 22.0503 33.6997C23.363 35.0125 25.1435 35.75 27 35.75H37.5Z" fill="white"/>
</svg>
