<svg width="41" height="41" viewBox="0 0 41 41" fill="none" xmlns="http://www.w3.org/2000/svg">
<path d="M12.375 17.125C12.375 17.5797 12.5556 18.0157 12.8771 18.3372C13.1986 18.6587 13.6346 18.8393 14.0893 18.8393C14.5439 18.8393 14.98 18.6587 15.3015 18.3372C15.623 18.0157 15.8036 17.5797 15.8036 17.125C15.8036 16.6703 15.623 16.2343 15.3015 15.9128C14.98 15.5913 14.5439 15.4107 14.0893 15.4107C13.6346 15.4107 13.1986 15.5913 12.8771 15.9128C12.5556 16.2343 12.375 16.6703 12.375 17.125ZM24.9464 17.125C24.9464 17.5797 25.127 18.0157 25.4485 18.3372C25.77 18.6587 26.2061 18.8393 26.6607 18.8393C27.1154 18.8393 27.5514 18.6587 27.8729 18.3372C28.1944 18.0157 28.375 17.5797 28.375 17.125C28.375 16.6703 28.1944 16.2343 27.8729 15.9128C27.5514 15.5913 27.1154 15.4107 26.6607 15.4107C26.2061 15.4107 25.77 15.5913 25.4485 15.9128C25.127 16.2343 24.9464 16.6703 24.9464 17.125ZM20.375 4.375C11.5393 4.375 4.375 11.5393 4.375 20.375C4.375 29.2107 11.5393 36.375 20.375 36.375C29.2107 36.375 36.375 29.2107 36.375 20.375C36.375 11.5393 29.2107 4.375 20.375 4.375ZM29.7679 29.7679C28.5464 30.9893 27.125 31.9464 25.5429 32.6179C23.9107 33.3107 22.1714 33.6607 20.375 33.6607C18.5786 33.6607 16.8393 33.3107 15.2036 32.6179C13.6238 31.9507 12.1889 30.9827 10.9786 29.7679C9.75714 28.5464 8.8 27.125 8.12857 25.5429C7.43929 23.9107 7.08929 22.1714 7.08929 20.375C7.08929 18.5786 7.43929 16.8393 8.13214 15.2036C8.79931 13.6238 9.76727 12.1889 10.9821 10.9786C12.2036 9.75714 13.625 8.8 15.2071 8.12857C16.8393 7.43929 18.5786 7.08929 20.375 7.08929C22.1714 7.08929 23.9107 7.43929 25.5464 8.13214C27.1262 8.79931 28.5611 9.76727 29.7714 10.9821C30.9929 12.2036 31.95 13.625 32.6214 15.2071C33.3107 16.8393 33.6607 18.5786 33.6607 20.375C33.6607 22.1714 33.3107 23.9107 32.6179 25.5464C31.9515 27.1256 30.9834 28.5595 29.7679 29.7679ZM25.8036 21.125H24.0857C23.9357 21.125 23.8071 21.2393 23.7964 21.3893C23.6607 23.1571 22.1786 24.5536 20.375 24.5536C18.5714 24.5536 17.0857 23.1571 16.9536 21.3893C16.9429 21.2393 16.8143 21.125 16.6643 21.125H14.9464C14.9077 21.125 14.8693 21.1328 14.8337 21.148C14.7981 21.1633 14.7659 21.1856 14.7392 21.2137C14.7124 21.2417 14.6917 21.2749 14.6782 21.3113C14.6647 21.3476 14.6588 21.3863 14.6607 21.425C14.8179 24.4357 17.3214 26.8393 20.375 26.8393C23.4286 26.8393 25.9321 24.4357 26.0893 21.425C26.0912 21.3863 26.0853 21.3476 26.0718 21.3113C26.0583 21.2749 26.0376 21.2417 26.0108 21.2137C25.9841 21.1856 25.9519 21.1633 25.9163 21.148C25.8807 21.1328 25.8423 21.125 25.8036 21.125Z" fill="#8C8C8C"/>
</svg>
