<svg width="42" height="42" viewBox="0 0 42 42" fill="none" xmlns="http://www.w3.org/2000/svg">
<path d="M31.9635 8.06334C28.0998 4.19967 21.808 4.19967 17.9485 8.06334L7.2434 18.7602C7.17367 18.8299 7.13676 18.9243 7.13676 19.0227C7.13676 19.1212 7.17367 19.2155 7.2434 19.2852L8.75687 20.7987C8.82605 20.8676 8.9197 20.9062 9.01732 20.9062C9.11495 20.9062 9.20859 20.8676 9.27777 20.7987L19.9829 10.1018C21.3118 8.77291 23.0795 8.04283 24.958 8.04283C26.8366 8.04283 28.6043 8.77291 29.9291 10.1018C31.258 11.4307 31.9881 13.1985 31.9881 15.0729C31.9881 16.9514 31.258 18.7151 29.9291 20.044L19.019 30.9501L17.2512 32.7178C15.5983 34.3708 12.9118 34.3708 11.2588 32.7178C10.459 31.918 10.0202 30.8557 10.0202 29.7237C10.0202 28.5917 10.459 27.5294 11.2588 26.7296L22.0829 15.9096C22.3577 15.6389 22.7186 15.4872 23.1041 15.4872H23.1082C23.4938 15.4872 23.8506 15.6389 24.1213 15.9096C24.3961 16.1844 24.5438 16.5454 24.5438 16.9309C24.5438 17.3124 24.392 17.6733 24.1213 17.944L15.2743 26.7829C15.2045 26.8526 15.1676 26.9469 15.1676 27.0454C15.1676 27.1438 15.2045 27.2381 15.2743 27.3079L16.7877 28.8214C16.8569 28.8902 16.9506 28.9289 17.0482 28.9289C17.1458 28.9289 17.2395 28.8902 17.3086 28.8214L26.1516 19.9784C26.9678 19.1622 27.4149 18.0794 27.4149 16.9268C27.4149 15.7743 26.9637 14.6874 26.1516 13.8753C24.4659 12.1895 21.726 12.1936 20.0403 13.8753L18.9903 14.9294L9.22035 24.6952C8.55725 25.3544 8.03163 26.1387 7.67396 27.0026C7.31629 27.8665 7.13369 28.7928 7.13676 29.7278C7.13676 31.6268 7.87914 33.411 9.22035 34.7522C10.6108 36.1385 12.4319 36.8317 14.253 36.8317C16.0741 36.8317 17.8952 36.1385 19.2815 34.7522L31.9635 22.0784C33.8297 20.2081 34.8633 17.7184 34.8633 15.0729C34.8674 12.4233 33.8338 9.93365 31.9635 8.06334Z" fill="#8C8C8C"/>
</svg>
