<svg width="60" height="60" viewBox="0 0 60 60" fill="none" xmlns="http://www.w3.org/2000/svg">
<circle cx="30" cy="30" r="30" fill="#14004B"/>
<path d="M46.243 41.7937C45.3588 39.6992 44.0756 37.7967 42.4649 36.1922C40.8591 34.583 38.9569 33.3 36.8634 32.4141C36.8446 32.4047 36.8259 32.4 36.8071 32.3906C39.7274 30.2812 41.6259 26.8453 41.6259 22.9688C41.6259 16.5469 36.4227 11.3438 30.0009 11.3438C23.579 11.3438 18.3759 16.5469 18.3759 22.9688C18.3759 26.8453 20.2743 30.2812 23.1946 32.3953C23.1758 32.4047 23.1571 32.4094 23.1384 32.4187C21.0384 33.3047 19.154 34.575 17.5368 36.1969C15.9276 37.8027 14.6446 39.7049 13.7587 41.7984C12.8883 43.8481 12.4189 46.0455 12.3758 48.2719C12.3746 48.3219 12.3834 48.3717 12.4017 48.4183C12.4199 48.4648 12.4474 48.5073 12.4823 48.5431C12.5173 48.5789 12.559 48.6074 12.6051 48.6268C12.6513 48.6463 12.7008 48.6563 12.7508 48.6562H15.5633C15.7696 48.6562 15.9337 48.4922 15.9383 48.2906C16.0321 44.6719 17.4852 41.2828 20.054 38.7141C22.7118 36.0563 26.2415 34.5938 30.0009 34.5938C33.7602 34.5938 37.2899 36.0563 39.9477 38.7141C42.5165 41.2828 43.9696 44.6719 44.0634 48.2906C44.068 48.4969 44.2321 48.6562 44.4384 48.6562H47.2509C47.3009 48.6563 47.3504 48.6463 47.3966 48.6268C47.4427 48.6074 47.4844 48.5789 47.5194 48.5431C47.5543 48.5073 47.5818 48.4648 47.6 48.4183C47.6183 48.3717 47.6271 48.3219 47.6259 48.2719C47.579 46.0312 47.1149 43.8516 46.243 41.7937ZM30.0009 31.0312C27.8493 31.0312 25.8243 30.1922 24.3008 28.6688C22.7774 27.1453 21.9384 25.1203 21.9384 22.9688C21.9384 20.8172 22.7774 18.7922 24.3008 17.2687C25.8243 15.7453 27.8493 14.9062 30.0009 14.9062C32.1524 14.9062 34.1774 15.7453 35.7008 17.2687C37.2243 18.7922 38.0634 20.8172 38.0634 22.9688C38.0634 25.1203 37.2243 27.1453 35.7008 28.6688C34.1774 30.1922 32.1524 31.0312 30.0009 31.0312Z" fill="white"/>
</svg>
