<svg width="60" height="60" viewBox="0 0 60 60" fill="none" xmlns="http://www.w3.org/2000/svg">
<path d="M30 60C22.0435 60 14.4129 56.8393 8.7868 51.2132C3.16071 45.5871 0 37.9565 0 30C0 22.0435 3.16071 14.4129 8.7868 8.7868C14.4129 3.16071 22.0435 0 30 0C37.9565 0 45.5871 3.16071 51.2132 8.7868C56.8393 14.4129 60 22.0435 60 30C60 37.9565 56.8393 45.5871 51.2132 51.2132C45.5871 56.8393 37.9565 60 30 60ZM36 21C36 21.84 35.37 23.4 34.74 24L30 28.74C28.29 30.48 27 33.54 27 36V36C27 37.6569 28.3431 39 30 39V39C31.6569 39 33 37.6569 33 36V36C33 35.13 33.63 33.6 34.26 33L39 28.26C40.71 26.52 42 23.46 42 21C42 17.8174 40.7357 14.7652 38.4853 12.5147C36.2348 10.2643 33.1826 9 30 9C26.8174 9 23.7652 10.2643 21.5147 12.5147C19.9784 14.051 18.9017 15.961 18.373 18.0311C17.9631 19.6364 19.3431 21 21 21V21C22.6569 21 23.9402 19.5774 24.7345 18.1234C25.0062 17.626 25.3494 17.1653 25.7574 16.7574C26.8826 15.6321 28.4087 15 30 15C31.5913 15 33.1174 15.6321 34.2426 16.7574C35.3679 17.8826 36 19.4087 36 21ZM30 45C28.3431 45 27 46.3431 27 48V48C27 49.6569 28.3431 51 30 51V51C31.6569 51 33 49.6569 33 48V48C33 46.3431 31.6569 45 30 45V45Z" fill="#4164EE"/>
</svg>
